HIERARCHY
ROOT newVegas:Hips
{
	OFFSET 0.000000 96.479958 0.000000
	CHANNELS 6 Xposition Yposition Zposition Xrotation Yrotation Zrotation
	JOINT newVegas:Pelvis
	{
		OFFSET 0.000000 0.000000 0.000000
		CHANNELS 3 Xrotation Yrotation Zrotation
		JOINT newVegas:LeftUpLeg
		{
			OFFSET 18.735201 -5.666702 -4.541200
			CHANNELS 3 Xrotation Yrotation Zrotation
			JOINT newVegas:LeftLeg
			{
				OFFSET -0.021200 -31.938179 0.493100
				CHANNELS 3 Xrotation Yrotation Zrotation
				JOINT newVegas:LeftFoot
				{
					OFFSET 0.021200 -31.938179 -4.336299
					CHANNELS 3 Xrotation Yrotation Zrotation
					JOINT newVegas:LeftToeBase
					{
						OFFSET 0.943001 -26.722000 15.023500
						CHANNELS 3 Xrotation Yrotation Zrotation
						End Site
						{
							OFFSET 0.000000 30.670183 0.000000
						}
					}
				}
				JOINT newVegas:Left_PantLeg
				{
					OFFSET 0.663870 -9.044666 -1.108900
					CHANNELS 3 Xrotation Yrotation Zrotation
					End Site
					{
						OFFSET 1.415995 20.635357 0.000000
					}
				}
			}
		}
		JOINT newVegas:RightUpLeg
		{
			OFFSET -18.735201 -5.666702 -4.541200
			CHANNELS 3 Xrotation Yrotation Zrotation
			JOINT newVegas:RightLeg
			{
				OFFSET 0.018946 -31.938133 0.493100
				CHANNELS 3 Xrotation Yrotation Zrotation
				JOINT newVegas:RightFoot
				{
					OFFSET -0.018946 -31.938126 -4.336299
					CHANNELS 3 Xrotation Yrotation Zrotation
					JOINT newVegas:RightToeBase
					{
						OFFSET -0.943001 -26.722004 15.023500
						CHANNELS 3 Xrotation Yrotation Zrotation
						End Site
						{
							OFFSET 0.000000 30.670187 0.000000
						}
					}
				}
				JOINT newVegas:Right_PantLeg
				{
					OFFSET -0.661674 -9.044716 -1.108900
					CHANNELS 3 Xrotation Yrotation Zrotation
					End Site
					{
						OFFSET -1.415958 20.635269 0.000000
					}
				}
			}
		}
	}
	JOINT newVegas:Spine
	{
		OFFSET 0.000000 10.199997 -0.299500
		CHANNELS 3 Xrotation Yrotation Zrotation
		JOINT newVegas:Spine1
		{
			OFFSET 0.000000 11.900002 -1.516600
			CHANNELS 3 Xrotation Yrotation Zrotation
			JOINT newVegas:Spine2
			{
				OFFSET 0.000000 13.600006 -2.842500
				CHANNELS 3 Xrotation Yrotation Zrotation
				JOINT newVegas:Neck
				{
					OFFSET 0.000000 9.624100 -2.890100
					CHANNELS 3 Xrotation Yrotation Zrotation
					JOINT newVegas:Head
					{
						OFFSET 0.000000 14.068802 -1.351900
						CHANNELS 3 Xrotation Yrotation Zrotation
						JOINT newVegas:Hair_Back
						{
							OFFSET 0.000000 3.231903 -17.524799
							CHANNELS 3 Xrotation Yrotation Zrotation
							End Site
							{
								OFFSET 0.000000 19.849884 0.000000
							}
						}
						JOINT newVegas:Hair_Front
						{
							OFFSET 0.000000 31.260406 4.573800
							CHANNELS 3 Xrotation Yrotation Zrotation
							JOINT newVegas:Hair_Front1
							{
								OFFSET 0.000000 2.284103 11.993300
								CHANNELS 3 Xrotation Yrotation Zrotation
								JOINT newVegas:Hair_Front2
								{
									OFFSET 0.000000 2.284103 11.993300
									CHANNELS 3 Xrotation Yrotation Zrotation
									End Site
									{
										OFFSET 0.000000 12.208862 0.000000
									}
								}
							}
						}
						JOINT newVegas:Jowel
						{
							OFFSET 0.000000 -7.458206 6.864100
							CHANNELS 3 Xrotation Yrotation Zrotation
							End Site
							{
								OFFSET 0.000000 19.849884 0.000000
							}
						}
					}
				}
				JOINT newVegas:LeftShoulder
				{
					OFFSET 15.263000 10.923401 -0.547700
					CHANNELS 3 Xrotation Yrotation Zrotation
					JOINT newVegas:LeftArm
					{
						OFFSET 25.438599 -2.830597 -13.032500
						CHANNELS 3 Xrotation Yrotation Zrotation
						JOINT newVegas:LeftForeArm
						{
							OFFSET 29.960503 0.000000 0.000000
							CHANNELS 3 Xrotation Yrotation Zrotation
							JOINT newVegas:LeftHand
							{
								OFFSET 27.849251 0.000000 0.000000
								CHANNELS 3 Xrotation Yrotation Zrotation
								JOINT newVegas:LeftHandThumb1
								{
									OFFSET 4.487587 -3.305161 6.305391
									CHANNELS 3 Xrotation Yrotation Zrotation
									JOINT newVegas:LeftHandThumb2
									{
										OFFSET 5.480453 -3.164139 3.164143
										CHANNELS 3 Xrotation Yrotation Zrotation
										JOINT newVegas:LeftHandThumb3
										{
											OFFSET 5.159721 -2.978973 2.978967
											CHANNELS 3 Xrotation Yrotation Zrotation
											End Site
											{
												OFFSET 2.494507 5.926697 1.738678
											}
										}
									}
								}
								JOINT newVegas:LeftHandIndex1
								{
									OFFSET 18.578728 -0.527832 5.208049
									CHANNELS 3 Xrotation Yrotation Zrotation
									JOINT newVegas:LeftHandIndex2
									{
										OFFSET 3.192009 0.000000 0.000000
										CHANNELS 3 Xrotation Yrotation Zrotation
										JOINT newVegas:LeftHandIndex3
										{
											OFFSET 3.835129 0.000000 0.000000
											CHANNELS 3 Xrotation Yrotation Zrotation
											End Site
											{
												OFFSET -0.034599 3.816971 0.371180
											}
										}
									}
								}
								JOINT newVegas:LeftHandMiddle1
								{
									OFFSET 18.476105 0.000000 0.000000
									CHANNELS 3 Xrotation Yrotation Zrotation
									JOINT newVegas:LeftHandMiddle2
									{
										OFFSET 3.324875 0.000000 0.000000
										CHANNELS 3 Xrotation Yrotation Zrotation
										JOINT newVegas:LeftHandMiddle3
										{
											OFFSET 4.596550 0.000000 0.000000
											CHANNELS 3 Xrotation Yrotation Zrotation
											End Site
											{
												OFFSET 0.057701 4.578827 0.399218
											}
										}
									}
								}
								JOINT newVegas:LeftHandRing1
								{
									OFFSET 17.732719 0.121887 -4.201567
									CHANNELS 3 Xrotation Yrotation Zrotation
									JOINT newVegas:LeftHandRing2
									{
										OFFSET 2.733170 0.000000 0.000000
										CHANNELS 3 Xrotation Yrotation Zrotation
										JOINT newVegas:LeftHandRing3
										{
											OFFSET 3.178268 0.000000 0.000000
											CHANNELS 3 Xrotation Yrotation Zrotation
											End Site
											{
												OFFSET 0.119102 3.170624 0.185394
											}
										}
									}
								}
								JOINT newVegas:LeftHandPinky1
								{
									OFFSET 15.989624 -0.606689 -7.535461
									CHANNELS 3 Xrotation Yrotation Zrotation
									JOINT newVegas:LeftHandPinky2
									{
										OFFSET 2.538986 0.000000 0.000000
										CHANNELS 3 Xrotation Yrotation Zrotation
										JOINT newVegas:LeftHandPinky3
										{
											OFFSET 2.593102 0.000000 0.000000
											CHANNELS 3 Xrotation Yrotation Zrotation
											End Site
											{
												OFFSET -0.150902 2.584198 0.152708
											}
										}
									}
								}
							}
							JOINT newVegas:Left_Sleeve
							{
								OFFSET 0.267448 -0.649796 0.577675
								CHANNELS 3 Xrotation Yrotation Zrotation
								End Site
								{
									OFFSET 0.000000 15.991241 0.000000
								}
							}
							JOINT newVegas:Left_CapeC
							{
								OFFSET 15.715958 -8.608795 -6.935905
								CHANNELS 3 Xrotation Yrotation Zrotation
								JOINT newVegas:Left_CapeC1
								{
									OFFSET 0.000000 -8.688499 0.000000
									CHANNELS 3 Xrotation Yrotation Zrotation
									End Site
									{
										OFFSET 0.000000 8.688499 0.000000
									}
								}
							}
						}
						JOINT newVegas:Left_CapeB
						{
							OFFSET 26.118385 -8.608795 -7.079235
							CHANNELS 3 Xrotation Yrotation Zrotation
							JOINT newVegas:Left_CapeB1
							{
								OFFSET 0.000000 -8.688499 0.000000
								CHANNELS 3 Xrotation Yrotation Zrotation
								End Site
								{
									OFFSET 0.000000 8.688499 0.000000
								}
							}
						}
						JOINT newVegas:Left_CapeA
						{
							OFFSET 5.115639 -8.608795 -10.395809
							CHANNELS 3 Xrotation Yrotation Zrotation
							JOINT newVegas:Left_CapeA1
							{
								OFFSET 0.000000 -8.688499 0.000000
								CHANNELS 3 Xrotation Yrotation Zrotation
								End Site
								{
									OFFSET 0.000000 8.688499 0.000000
								}
							}
						}
					}
				}
				JOINT newVegas:RightShoulder
				{
					OFFSET -15.263000 10.923401 -0.547700
					CHANNELS 3 Xrotation Yrotation Zrotation
					JOINT newVegas:RightArm
					{
						OFFSET -25.438599 -2.830597 -13.032500
						CHANNELS 3 Xrotation Yrotation Zrotation
						JOINT newVegas:RightForeArm
						{
							OFFSET -29.960503 0.000000 0.000000
							CHANNELS 3 Xrotation Yrotation Zrotation
							JOINT newVegas:RightHand
							{
								OFFSET -27.849251 0.000000 0.000000
								CHANNELS 3 Xrotation Yrotation Zrotation
								JOINT newVegas:RightHandThumb1
								{
									OFFSET -4.487587 -3.305161 6.305391
									CHANNELS 3 Xrotation Yrotation Zrotation
									JOINT newVegas:RightHandThumb2
									{
										OFFSET -5.480453 -3.164139 3.164143
										CHANNELS 3 Xrotation Yrotation Zrotation
										JOINT newVegas:RightHandThumb3
										{
											OFFSET -5.159721 -2.978973 2.978967
											CHANNELS 3 Xrotation Yrotation Zrotation
											End Site
											{
												OFFSET -2.494507 5.926697 1.738678
											}
										}
									}
								}
								JOINT newVegas:RightHandIndex1
								{
									OFFSET -18.578728 -0.527832 5.208049
									CHANNELS 3 Xrotation Yrotation Zrotation
									JOINT newVegas:RightHandIndex2
									{
										OFFSET -3.192009 0.000000 0.000000
										CHANNELS 3 Xrotation Yrotation Zrotation
										JOINT newVegas:RightHandIndex3
										{
											OFFSET -3.835129 0.000000 0.000000
											CHANNELS 3 Xrotation Yrotation Zrotation
											End Site
											{
												OFFSET 0.034599 3.816971 0.371180
											}
										}
									}
								}
								JOINT newVegas:RightHandMiddle1
								{
									OFFSET -18.476105 0.000000 0.000000
									CHANNELS 3 Xrotation Yrotation Zrotation
									JOINT newVegas:RightHandMiddle2
									{
										OFFSET -3.324875 0.000000 0.000000
										CHANNELS 3 Xrotation Yrotation Zrotation
										JOINT newVegas:RightHandMiddle3
										{
											OFFSET -4.596550 0.000000 0.000000
											CHANNELS 3 Xrotation Yrotation Zrotation
											End Site
											{
												OFFSET -0.057701 4.578827 0.399218
											}
										}
									}
								}
								JOINT newVegas:RightHandRing1
								{
									OFFSET -17.732719 0.121887 -4.201567
									CHANNELS 3 Xrotation Yrotation Zrotation
									JOINT newVegas:RightHandRing2
									{
										OFFSET -2.733170 0.000000 0.000000
										CHANNELS 3 Xrotation Yrotation Zrotation
										JOINT newVegas:RightHandRing3
										{
											OFFSET -3.178268 0.000000 0.000000
											CHANNELS 3 Xrotation Yrotation Zrotation
											End Site
											{
												OFFSET -0.119102 3.170624 0.185394
											}
										}
									}
								}
								JOINT newVegas:RightHandPinky1
								{
									OFFSET -15.989624 -0.606689 -7.535461
									CHANNELS 3 Xrotation Yrotation Zrotation
									JOINT newVegas:RightHandPinky2
									{
										OFFSET -2.538986 0.000000 0.000000
										CHANNELS 3 Xrotation Yrotation Zrotation
										JOINT newVegas:RightHandPinky3
										{
											OFFSET -2.593102 0.000000 0.000000
											CHANNELS 3 Xrotation Yrotation Zrotation
											End Site
											{
												OFFSET 0.150902 2.584198 0.152708
											}
										}
									}
								}
							}
							JOINT newVegas:Right_CapeC
							{
								OFFSET -15.715958 -8.608795 -6.935905
								CHANNELS 3 Xrotation Yrotation Zrotation
								JOINT newVegas:Right_CapeC1
								{
									OFFSET 0.000000 -8.688499 0.000000
									CHANNELS 3 Xrotation Yrotation Zrotation
									End Site
									{
										OFFSET 0.000000 8.688499 0.000000
									}
								}
							}
							JOINT newVegas:Right_Sleeve
							{
								OFFSET -0.267448 -0.649994 0.577675
								CHANNELS 3 Xrotation Yrotation Zrotation
								End Site
								{
									OFFSET 0.000000 15.991302 0.000000
								}
							}
						}
						JOINT newVegas:Right_CapeA
						{
							OFFSET -5.115540 -8.608795 -10.395824
							CHANNELS 3 Xrotation Yrotation Zrotation
							JOINT newVegas:Right_CapeA1
							{
								OFFSET 0.000000 -8.688499 0.000000
								CHANNELS 3 Xrotation Yrotation Zrotation
								End Site
								{
									OFFSET 0.000000 8.688499 0.000000
								}
							}
						}
						JOINT newVegas:Right_CapeB
						{
							OFFSET -26.118187 -8.608795 -7.079266
							CHANNELS 3 Xrotation Yrotation Zrotation
							JOINT newVegas:Right_CapeB1
							{
								OFFSET 0.000000 -8.688499 0.000000
								CHANNELS 3 Xrotation Yrotation Zrotation
								End Site
								{
									OFFSET 0.000000 8.688499 0.000000
								}
							}
						}
					}
				}
				JOINT newVegas:Left_Collar
				{
					OFFSET 18.625099 8.655502 8.828100
					CHANNELS 3 Xrotation Yrotation Zrotation
					JOINT newVegas:Left_Collar1
					{
						OFFSET 14.783401 10.540405 -1.259500
						CHANNELS 3 Xrotation Yrotation Zrotation
						End Site
						{
							OFFSET 0.000000 18.199875 0.000000
						}
					}
				}
				JOINT newVegas:Collar_Back
				{
					OFFSET 0.000000 15.630707 -20.132601
					CHANNELS 3 Xrotation Yrotation Zrotation
					End Site
					{
						OFFSET 0.000000 22.523010 0.000000
					}
				}
				JOINT newVegas:Left_Peck
				{
					OFFSET 17.239599 -5.132599 25.482599
					CHANNELS 3 Xrotation Yrotation Zrotation
					End Site
					{
						OFFSET 0.000000 22.523010 0.000000
					}
				}
				JOINT newVegas:Right_Peck
				{
					OFFSET -17.239599 -5.132202 25.482599
					CHANNELS 3 Xrotation Yrotation Zrotation
					End Site
					{
						OFFSET 0.000000 22.523010 0.000000
					}
				}
				JOINT newVegas:Right_Collar
				{
					OFFSET -18.625099 8.655792 8.828100
					CHANNELS 3 Xrotation Yrotation Zrotation
					JOINT newVegas:Right_Collar1
					{
						OFFSET -14.783401 10.539993 -1.259500
						CHANNELS 3 Xrotation Yrotation Zrotation
						End Site
						{
							OFFSET 0.000000 18.199631 0.000000
						}
					}
				}
			}
		}
		JOINT newVegas:Belly
		{
			OFFSET 0.000000 -6.540398 9.014299
			CHANNELS 3 Xrotation Yrotation Zrotation
			End Site
			{
				OFFSET 0.000000 11.566666 0.000000
			}
		}
	}
	JOINT newVegas:ElvisFacialAnim_Joint
	{
		OFFSET 1.000000 -95.330101 -8.825800
		CHANNELS 3 Xrotation Yrotation Zrotation
		End Site
		{
			OFFSET 0.000000 35.315800 0.000000
		}
	}
}
MOTION
Frames: 4
Frame Time: 0.033333
0.448092 53.160347 9.863301 -9.320929 -1.956052 1.640569 -0.000001 -0.000000 -0.000000 -98.881810 -2.758543 13.491973 86.990150 -7.773455 -5.101325 21.549549 0.464165 1.631166 0.000000 0.000000 -0.000000 -0.000000 0.000000 0.000000 -103.061544 1.551622 -7.886823 96.761439 -8.951499 1.697103 14.381655 -2.422253 -7.460196 -0.000000 0.000000 0.000000 -0.000001 0.000000 0.000000 19.091583 -0.675360 -3.369203 3.067790 -0.106719 -0.382695 2.163744 -0.110119 -0.386537 0.552744 0.193529 0.008840 0.552761 0.193528 0.008840 0.000001 0.000000 -0.000000 0.552828 0.193530 0.008838 0.552682 0.193529 0.008839 0.000000 0.000000 0.000000 0.000001 0.000000 -0.000000 2.040708 -14.119981 -7.784481 -17.693993 -17.566845 -53.532571 -0.000017 -55.880370 -0.000013 24.103517 -2.397441 15.753136 6.704625 -2.646945 1.603629 18.722035 22.579991 -9.756969 0.000004 -0.000001 -0.000006 1.270397 6.255404 -55.163873 0.947130 3.195551 -33.011896 -0.000001 0.000001 0.000001 -0.585529 4.092799 -44.490199 0.868668 3.071548 -31.576361 0.000000 -0.000002 -0.000000 2.333296 7.248565 -38.416935 0.415654 2.169169 -21.692143 0.000001 -0.000001 0.000002 1.910224 7.276720 -27.959617 0.218138 1.585279 -15.668319 0.000001 -0.000003 0.000000 -0.000002 0.000000 -0.000000 -0.000002 0.000000 -0.000000 -0.000003 0.000000 0.000000 -0.000002 -0.000001 -0.000000 -0.000001 -0.000002 -0.000001 -0.000002 -0.000001 -0.000000 -0.000003 -0.000001 -0.000001 1.381380 17.684760 12.436840 -25.148883 30.128514 52.216933 0.000001 36.581349 -0.000003 23.380567 7.875796 -0.660457 4.380043 3.395466 -16.864285 30.486181 -13.841325 18.212230 0.000002 0.000002 -0.000004 1.162883 -5.380687 49.577761 0.883836 -2.731654 35.852346 -0.000000 -0.000001 -0.000004 -0.571171 -3.679439 46.258252 0.499437 -2.100015 26.752193 -0.000001 -0.000000 -0.000001 -0.191905 -3.454229 35.803452 0.302866 -1.653625 20.756019 -0.000000 -0.000001 -0.000000 2.057529 -7.461599 25.931078 0.379010 -1.841946 23.252027 0.000000 -0.000000 -0.000001 -0.000003 0.000001 -0.000001 -0.000002 0.000001 0.000001 -0.000003 0.000001 -0.000000 0.000000 0.000003 -0.000001 -0.000000 0.000003 -0.000002 0.000000 0.000003 -0.000001 0.000000 0.000003 -0.000001 -0.000001 -0.000000 -0.000000 -0.000001 -0.000000 -0.000000 -0.000001 -0.000000 -0.000000 -0.000001 -0.000000 -0.000000 -0.000001 -0.000000 -0.000000 -0.000001 -0.000000 -0.000000 -0.000001 -0.000000 -0.000000 0.000000 0.000000 -0.000000 -0.000001 -0.000000 -0.000000 
0.450000 53.165756 9.856227 -9.386898 -1.953787 1.640937 0.000000 0.000000 0.000000 -98.814416 -2.750532 13.489572 86.985533 -7.778193 -5.100993 21.551610 0.469196 1.639601 0.000000 -0.000000 -0.000000 0.000001 0.000000 -0.000000 -102.995394 1.551533 -7.891648 96.767456 -8.955517 1.696669 14.374193 -2.419609 -7.463549 0.000000 -0.000002 0.000000 -0.000002 -0.000001 -0.000001 19.167558 -0.685835 -3.366533 3.167523 -0.106718 -0.382695 2.184588 -0.110120 -0.386536 0.558158 0.193560 0.008578 0.558095 0.193560 0.008581 -0.000001 -0.000000 0.000000 0.558323 0.193557 0.008579 0.557997 0.193568 0.008577 0.000001 -0.000000 -0.000000 -0.000001 -0.000000 -0.000000 2.022446 -14.174756 -7.862629 -17.697934 -17.459657 -53.410792 -0.000013 -56.062425 -0.000011 24.135588 -2.351611 15.708796 6.704617 -2.646946 1.603629 18.722039 22.579991 -9.756965 0.000003 -0.000002 -0.000001 1.270398 6.255406 -55.163873 0.947130 3.195550 -33.011899 0.000001 0.000005 0.000000 -0.585535 4.092799 -44.490199 0.868669 3.071552 -31.576364 0.000001 0.000002 0.000000 2.333293 7.248564 -38.416939 0.415654 2.169172 -21.692143 0.000000 0.000003 0.000001 1.910221 7.276720 -27.959610 0.218137 1.585281 -15.668321 0.000001 -0.000005 -0.000002 -0.000002 -0.000003 0.000001 -0.000002 -0.000003 0.000001 -0.000003 -0.000002 0.000001 0.000002 0.000001 0.000002 0.000003 0.000001 0.000002 0.000002 0.000001 0.000002 0.000001 0.000002 0.000001 1.358138 17.723014 12.505953 -25.120027 30.048884 52.083167 0.000003 36.800410 -0.000006 23.419626 7.788570 -0.608838 4.380039 3.395465 -16.864287 30.486181 -13.841325 18.212230 0.000000 -0.000002 -0.000001 1.162885 -5.380689 49.577761 0.883837 -2.731656 35.852343 -0.000001 0.000000 0.000000 -0.571176 -3.679438 46.258255 0.499437 -2.100018 26.752191 0.000000 -0.000002 -0.000002 -0.191908 -3.454230 35.803455 0.302864 -1.653627 20.756018 -0.000000 0.000001 -0.000000 2.057527 -7.461596 25.931078 0.379007 -1.841944 23.252028 0.000002 0.000002 0.000000 -0.000003 -0.000003 0.000003 0.000002 -0.000004 0.000002 -0.000003 -0.000004 0.000003 -0.000001 0.000002 -0.000001 -0.000001 0.000003 -0.000001 -0.000001 0.000002 -0.000001 -0.000001 0.000003 -0.000002 0.000002 -0.000000 -0.000000 0.000002 -0.000000 -0.000000 0.000002 -0.000000 -0.000000 0.000002 -0.000000 -0.000000 0.000002 -0.000000 -0.000000 0.000002 -0.000000 -0.000000 0.000002 -0.000000 -0.000000 -0.000000 0.000000 -0.000000 0.000000 0.000000 0.000000 
0.451767 53.171150 9.848962 -9.453160 -1.951919 1.640907 -0.000000 0.000000 -0.000000 -98.746927 -2.743006 13.487508 86.982206 -7.781508 -5.100727 21.552674 0.473777 1.647617 0.000000 0.000000 -0.000000 -0.000002 0.000000 0.000000 -102.928676 1.551760 -7.897956 96.772620 -8.959492 1.696216 14.367400 -2.416518 -7.466866 0.000000 -0.000002 -0.000000 0.000000 0.000002 -0.000000 19.243288 -0.695482 -3.363953 3.268851 -0.106719 -0.382695 2.205164 -0.110119 -0.386537 0.562697 0.193559 0.008339 0.562696 0.193558 0.008338 0.000001 0.000000 -0.000000 0.562687 0.193560 0.008339 0.562762 0.193559 0.008339 -0.000002 0.000000 0.000000 0.000001 0.000000 0.000000 2.008160 -14.213439 -7.928274 -17.713993 -17.377808 -53.304897 -0.000002 -56.225444 0.000001 24.161077 -2.310059 15.672877 6.704625 -2.646943 1.603627 18.722039 22.579991 -9.756976 0.000001 -0.000003 -0.000001 1.270402 6.255406 -55.163869 0.947133 3.195556 -33.011899 -0.000000 -0.000001 0.000000 -0.585533 4.092799 -44.490199 0.868672 3.071550 -31.576357 0.000001 -0.000001 0.000000 2.333295 7.248568 -38.416939 0.415653 2.169173 -21.692140 0.000001 0.000001 -0.000001 1.910224 7.276719 -27.959613 0.218142 1.585281 -15.668322 -0.000001 -0.000003 0.000000 0.000002 -0.000001 0.000002 0.000002 -0.000001 0.000002 0.000001 -0.000001 0.000002 0.000001 -0.000001 0.000000 0.000001 -0.000002 0.000000 0.000001 -0.000001 0.000000 -0.000000 -0.000001 -0.000000 1.336557 17.747408 12.577072 -25.091205 29.995336 51.947041 0.000016 37.007140 -0.000028 23.446287 7.704955 -0.562012 4.380041 3.395464 -16.864289 30.486177 -13.841319 18.212228 0.000002 -0.000002 -0.000001 1.162884 -5.380689 49.577758 0.883835 -2.731653 35.852346 -0.000001 0.000002 -0.000002 -0.571174 -3.679440 46.258252 0.499436 -2.100013 26.752198 -0.000001 0.000003 -0.000001 -0.191906 -3.454231 35.803452 0.302861 -1.653625 20.756019 0.000000 -0.000001 -0.000000 2.057528 -7.461597 25.931085 0.379008 -1.841947 23.252028 0.000001 0.000003 0.000001 0.000001 0.000002 -0.000002 0.000001 0.000001 -0.000001 0.000001 0.000001 -0.000002 0.000002 -0.000002 0.000003 0.000002 -0.000001 0.000003 0.000002 -0.000002 0.000003 0.000002 -0.000001 0.000002 0.000002 0.000000 -0.000000 0.000002 0.000000 -0.000000 0.000002 0.000000 -0.000000 0.000002 0.000000 -0.000000 0.000002 0.000000 -0.000000 0.000002 0.000000 -0.000000 0.000002 0.000000 -0.000000 0.000001 0.000000 0.000000 -0.000000 0.000000 -0.000000 
0.453432 53.176437 9.841602 -9.519660 -1.950480 1.640443 0.000000 0.000000 -0.000000 -98.679383 -2.736577 13.485333 86.979939 -7.783886 -5.100522 21.553077 0.476992 1.653951 -0.000000 -0.000000 -0.000000 0.000003 -0.000000 -0.000000 -102.861700 1.551902 -7.905498 96.777135 -8.964034 1.695617 14.361195 -2.412647 -7.470448 -0.000000 -0.000002 0.000000 0.000001 -0.000002 -0.000001 19.318948 -0.704268 -3.361360 3.371605 -0.106719 -0.382695 2.225462 -0.110118 -0.386536 0.566466 0.193545 0.008122 0.566473 0.193546 0.008122 0.000002 0.000000 -0.000000 0.566545 0.193548 0.008121 0.566468 0.193547 0.008122 -0.000001 0.000000 0.000000 0.000002 0.000000 -0.000000 1.991373 -14.250982 -7.989495 -17.732371 -17.294842 -53.208461 0.000001 -56.384977 -0.000001 24.190474 -2.269744 15.636687 6.704623 -2.646945 1.603634 18.722033 22.579991 -9.756966 0.000003 0.000000 -0.000004 1.270396 6.255402 -55.163876 0.947133 3.195550 -33.011899 -0.000001 0.000002 -0.000000 -0.585534 4.092797 -44.490203 0.868669 3.071553 -31.576361 0.000000 0.000003 0.000000 2.333290 7.248565 -38.416935 0.415648 2.169170 -21.692143 0.000001 0.000005 0.000001 1.910220 7.276720 -27.959612 0.218140 1.585291 -15.668319 0.000002 -0.000003 -0.000003 0.000004 -0.000001 0.000001 0.000004 -0.000001 0.000001 0.000003 -0.000001 0.000001 -0.000001 0.000000 -0.000000 -0.000001 0.000000 -0.000001 -0.000001 0.000000 -0.000000 -0.000002 0.000001 -0.000001 1.314388 17.778127 12.650642 -25.047204 29.939520 51.793420 0.000001 37.226604 0.000010 23.461676 7.615924 -0.516386 4.380042 3.395467 -16.864283 30.486170 -13.841323 18.212226 -0.000000 -0.000002 -0.000001 1.162883 -5.380689 49.577758 0.883834 -2.731656 35.852343 0.000000 -0.000004 -0.000005 -0.571171 -3.679441 46.258255 0.499436 -2.100016 26.752196 0.000001 0.000002 -0.000002 -0.191909 -3.454229 35.803455 0.302865 -1.653634 20.756016 -0.000000 0.000001 -0.000000 2.057533 -7.461596 25.931080 0.379005 -1.841948 23.252032 0.000001 0.000002 -0.000002 0.000000 -0.000003 0.000002 0.000001 -0.000005 0.000003 0.000000 -0.000004 0.000002 0.000003 0.000001 -0.000000 0.000003 0.000002 -0.000000 0.000003 0.000001 -0.000000 0.000003 0.000002 -0.000001 -0.000000 0.000000 0.000000 -0.000000 0.000000 0.000000 -0.000000 0.000000 0.000000 -0.000000 0.000000 0.000000 -0.000000 0.000000 0.000000 -0.000000 0.000000 0.000000 -0.000000 0.000000 0.000000 0.000000 -0.000000 0.000000 0.000000 0.000000 -0.000000 
